<?xml version="1.0" encoding="UTF-8"?>
<svg width="32px" height="32px" viewBox="0 0 32 32" version="1.1" xmlns="http://www.w3.org/2000/svg" xmlns:xlink="http://www.w3.org/1999/xlink">
    <title>6F5F7CAC-A510-4A8F-8EB3-477F65B145CB</title>
    <g id="StyleGuide" stroke="none" stroke-width="1" fill="none" fill-rule="evenodd">
        <g id="205_Icons" transform="translate(-738.000000, -1528.000000)">
            <rect fill="#FFFFFF" fill-opacity="0" x="0" y="0" width="1440" height="2800"></rect>
            <path d="M754.847511,1533 L755.54945,1533.00144 C756.602686,1533.00475 757.153684,1533.01293 757.663525,1533.02979 L757.94031,1533.03988 C758.125808,1533.0472 758.316949,1533.05577 758.535904,1533.06576 C759.706772,1533.11916 760.506433,1533.30514 761.206142,1533.57709 C761.929518,1533.85817 762.542986,1534.23431 763.154577,1534.84586 C763.766123,1535.45745 764.142265,1536.07092 764.423388,1536.7943 C764.695299,1537.494 764.881273,1538.29367 764.934677,1539.46453 C764.9785,1540.425 764.994936,1540.85026 764.999457,1542.61171 L764.999457,1545.38831 C764.994936,1547.14974 764.9785,1547.575 764.934677,1548.53547 C764.881273,1549.70633 764.695299,1550.506 764.423388,1551.2057 C764.142265,1551.92908 763.766123,1552.54255 763.154577,1553.15414 C762.542986,1553.76569 761.929518,1554.14183 761.206142,1554.42295 C760.506433,1554.69486 759.706772,1554.88084 758.535904,1554.93424 C757.483968,1554.98224 757.074031,1554.99738 754.847511,1555 L753.153396,1555 C750.926845,1554.99738 750.516908,1554.98224 749.464971,1554.93424 C748.294103,1554.88084 747.494442,1554.69486 746.794733,1554.42295 C746.071357,1554.14183 745.457889,1553.76569 744.846299,1553.15414 C744.234752,1552.54255 743.85861,1551.92908 743.57753,1551.2057 C743.305577,1550.506 743.119602,1549.70633 743.066198,1548.53547 C743.056208,1548.31651 743.047641,1548.12537 743.040314,1547.93987 L743.03023,1547.66309 C743.013365,1547.15325 743.005185,1546.60225 743.001876,1545.54901 L743.000438,1544.84707 L743.000438,1543.15296 L743.000438,1543.15296 L743.001876,1542.45101 C743.005185,1541.39776 743.013365,1540.84676 743.03023,1540.33691 L743.040314,1540.06013 C743.047641,1539.87463 743.056208,1539.68349 743.066198,1539.46453 C743.119602,1538.29367 743.305577,1537.494 743.57753,1536.7943 C743.85861,1536.07092 744.234752,1535.45745 744.846299,1534.84586 C745.457889,1534.23431 746.071357,1533.85817 746.794733,1533.57709 C747.494442,1533.30514 748.294103,1533.11916 749.464971,1533.06576 C749.683926,1533.05577 749.875067,1533.0472 750.060565,1533.03988 L750.337351,1533.02979 C750.847194,1533.01293 751.398197,1533.00475 752.451447,1533.00144 L753.153396,1533 L754.847511,1533 L754.847511,1533 Z M754.704535,1534.98189 L753.428582,1534.98179 C753.339054,1534.98185 753.252327,1534.98192 753.168261,1534.98201 L752.69467,1534.98278 C751.436965,1534.98558 750.867528,1534.99404 750.301183,1535.0143 L750.100309,1535.02195 C749.931162,1535.02876 749.755308,1535.03664 749.555317,1535.04577 C748.482785,1535.09467 747.90032,1535.27388 747.512694,1535.42453 C746.999222,1535.62408 746.632775,1535.86246 746.247856,1536.24742 C745.862894,1536.63234 745.62452,1536.99878 745.424965,1537.51226 C745.274316,1537.89988 745.095109,1538.48235 745.046203,1539.55488 C745.037078,1539.75487 745.029193,1539.93072 745.022391,1540.09987 L745.014739,1540.30075 C744.994476,1540.86709 744.986014,1541.43653 744.983214,1542.69423 L744.982451,1543.16782 L744.982327,1543.29594 L744.982327,1543.29594 L744.982227,1544.57189 C744.982286,1544.66142 744.98236,1544.74814 744.982451,1544.83221 L744.983214,1545.30579 C744.987167,1547.08135 745.002404,1547.48516 745.046203,1548.44512 C745.095109,1549.51765 745.274316,1550.10012 745.424965,1550.48774 C745.62452,1551.00122 745.862938,1551.36766 746.247856,1551.75258 C746.632775,1552.13754 746.999222,1552.37592 747.512694,1552.57547 C747.90032,1552.72612 748.482785,1552.90533 749.555317,1552.95423 C749.826579,1552.96661 750.053426,1552.97671 750.279375,1552.98492 L750.506637,1552.9925 C751.005376,1553.00765 751.568003,1553.01452 752.637164,1553.01709 L755.363738,1553.01709 C756.432891,1553.01452 756.995524,1553.00765 757.494259,1552.9925 L757.721519,1552.98492 C757.947465,1552.97671 758.174306,1552.96661 758.445558,1552.95423 C759.51809,1552.90533 760.100555,1552.72612 760.488181,1552.57547 C761.001653,1552.37592 761.368101,1552.13754 761.753019,1551.75258 C762.137981,1551.36766 762.376356,1551.00122 762.575911,1550.48774 C762.726559,1550.10012 762.905766,1549.51765 762.954672,1548.44512 C762.962924,1548.26426 762.970162,1548.10314 762.976502,1547.94887 L762.985353,1547.72098 C763.005867,1547.15605 763.014561,1546.59677 763.017528,1545.36321 L763.017528,1542.63682 C763.014561,1541.40324 763.005867,1540.84395 762.985353,1540.27902 L762.976502,1540.05113 C762.970162,1539.89686 762.962924,1539.73574 762.954672,1539.55488 C762.905766,1538.48235 762.726559,1537.89988 762.575911,1537.51226 C762.376356,1536.99878 762.137981,1536.63234 761.753019,1536.24742 C761.368101,1535.86246 761.001653,1535.62408 760.488181,1535.42453 C760.100555,1535.27388 759.51809,1535.09467 758.445558,1535.04577 C757.485598,1535.00197 757.081789,1534.98673 755.30623,1534.98278 L754.832646,1534.98201 L754.704535,1534.98189 L754.704535,1534.98189 Z M754.00393,1538.49457 C757.042574,1538.49457 759.505864,1540.95786 759.505864,1543.99655 C759.505864,1547.03519 757.042574,1549.49848 754.00393,1549.49848 C750.965244,1549.49848 748.501954,1547.03519 748.501954,1543.99655 C748.501954,1540.95786 750.965244,1538.49457 754.00393,1538.49457 Z M754.00393,1540.42508 C752.031444,1540.42508 750.432463,1542.02406 750.432463,1543.99655 C750.432463,1545.96899 752.031444,1547.56797 754.00393,1547.56797 C755.976374,1547.56797 757.575356,1545.96899 757.575356,1543.99655 C757.575356,1542.02406 755.976374,1540.42508 754.00393,1540.42508 Z M760.193585,1536.43134 C760.953254,1536.43134 761.569097,1537.04718 761.569097,1537.80685 C761.569097,1538.56652 760.953254,1539.18232 760.193585,1539.18232 C759.433962,1539.18232 758.818119,1538.56652 758.818119,1537.80685 C758.818119,1537.04718 759.433962,1536.43134 760.193585,1536.43134 Z" id="inst" fill="#2C2C2C"></path>
        </g>
    </g>
</svg>