<?xml version="1.0" encoding="UTF-8"?>
<svg width="32px" height="32px" viewBox="0 0 32 32" version="1.1" xmlns="http://www.w3.org/2000/svg" xmlns:xlink="http://www.w3.org/1999/xlink">
    <title>1AE14AC9-A232-4598-8DD3-0ED138E98E98</title>
    <g id="StyleGuide" stroke="none" stroke-width="1" fill="none" fill-rule="evenodd">
        <g id="205_Icons" transform="translate(-738.000000, -1640.000000)">
            <rect fill="#FFFFFF" fill-opacity="0" x="0" y="0" width="1440" height="2800"></rect>
            <g id="Pinterest" transform="translate(743.000000, 1645.000000)" fill="#2C2C2C">
                <path d="M10.9954751,0 C4.91402715,0 0,4.92307692 0,10.9954751 C0,15.6561086 2.8959276,19.638009 6.98642534,21.239819 C6.88687783,20.3710407 6.80542986,19.0316742 7.02262443,18.081448 C7.22171946,17.2217195 8.30769231,12.6153846 8.30769231,12.6153846 C8.30769231,12.6153846 7.98190045,11.9547511 7.98190045,10.9864253 C7.98190045,9.45701357 8.86877828,8.31674208 9.97285068,8.31674208 C10.9140271,8.31674208 11.3665158,9.02262443 11.3665158,9.86425339 C11.3665158,10.8054299 10.7692308,12.2171946 10.4524887,13.5294118 C10.1900452,14.6244344 11.0045249,15.520362 12.081448,15.520362 C14.0361991,15.520362 15.5384615,13.4570136 15.5384615,10.4886878 C15.5384615,7.85520362 13.6470588,6.01809955 10.9411765,6.01809955 C7.80995475,6.01809955 5.97285068,8.36199095 5.97285068,10.7873303 C5.97285068,11.7285068 6.33484163,12.7420814 6.78733032,13.2941176 C6.87782805,13.4027149 6.88687783,13.5022624 6.85972851,13.6108597 C6.77828054,13.9547511 6.58823529,14.7058824 6.5520362,14.8597285 C6.50678733,15.0588235 6.38914027,15.1040724 6.18099548,15.0045249 C4.82352941,14.3529412 3.97285068,12.3438914 3.97285068,10.7330317 C3.97285068,7.26696833 6.48868778,4.08144796 11.239819,4.08144796 C15.0497738,4.08144796 18.0180995,6.79638009 18.0180995,10.4343891 C18.0180995,14.2262443 15.6289593,17.2760181 12.3167421,17.2760181 C11.2036199,17.2760181 10.1538462,16.6968326 9.80090498,16.0090498 C9.80090498,16.0090498 9.24886878,18.1085973 9.11312217,18.6244344 C8.86877828,19.5837104 8.19909502,20.7782805 7.74660633,21.5113122 C8.77828054,21.8280543 9.86425339,22 11.0045249,22 C17.0769231,22 22,17.0769231 22,11.0045249 C21.9909502,4.92307692 17.0678733,0 10.9954751,0 Z" id="Path"></path>
            </g>
        </g>
    </g>
</svg>