<?xml version="1.0" encoding="UTF-8"?>
<svg width="32px" height="32px" viewBox="0 0 32 32" version="1.1" xmlns="http://www.w3.org/2000/svg" xmlns:xlink="http://www.w3.org/1999/xlink">
    <title>8CA04418-15D7-4D7C-9B25-D9F956A9592F</title>
    <g id="StyleGuide" stroke="none" stroke-width="1" fill="none" fill-rule="evenodd">
        <g id="205_Icons" transform="translate(-738.000000, -1696.000000)">
            <rect fill="#FFFFFF" fill-opacity="0" x="0" y="0" width="1440" height="2800"></rect>
            <path d="M754,1709.5 C755.380837,1709.5 756.5,1710.61916 756.5,1712 C756.5,1713.38084 755.380837,1714.5 754,1714.5 C752.619163,1714.5 751.5,1713.38084 751.5,1712 C751.5,1710.61916 752.619163,1709.5 754,1709.5 Z M756.5,1718.97234 C756.5,1718.8986 756.5,1718.75461 756.5,1718.68086 C756.5,1717.44469 755.417069,1716.5 754,1716.5 C752.582931,1716.5 751.5,1717.44469 751.5,1718.68086 C751.5,1718.75461 751.5,1718.8986 751.5,1718.97234 L751.5,1719.11633 L752.333333,1723.19008 C752.417874,1723.91703 753.166667,1724.5 754,1724.5 C754.833333,1724.5 755.582126,1723.91703 755.666667,1723.19008 L756.5,1719.11633 L756.5,1718.97234 Z M750.096379,1721.53548 C750.308821,1721.11496 750.145404,1720.60373 749.728691,1720.38523 C746.619684,1718.77735 744.691365,1715.5987 744.691365,1712.09435 C744.691365,1706.91616 748.866667,1702.7027 753.997957,1702.7027 C759.129248,1702.7027 763.30455,1706.91616 763.30455,1712.09435 C763.30455,1715.55747 761.372145,1718.73612 758.259053,1720.38935 C757.846425,1720.60786 757.687094,1721.1232 757.903621,1721.54372 C758.120149,1721.96012 758.634912,1722.12091 759.047539,1721.9024 C762.716249,1719.95234 765,1716.1965 765,1712.09848 C765,1705.9803 760.06481,1701 754.002043,1701 C747.939276,1701 743,1705.97617 743,1712.09435 C743,1716.24185 745.283751,1720.00181 748.960631,1721.9024 C749.083194,1721.96837 749.213928,1721.99723 749.344661,1721.99723 C749.651068,1722.00135 749.949304,1721.8282 750.096379,1721.53548 Z M749.665236,1717.71587 C750,1717.35424 749.978541,1716.79028 749.622318,1716.45449 C748.429185,1715.33518 747.772532,1713.76384 747.772532,1712.0246 C747.772532,1708.58487 750.562232,1705.78229 753.995708,1705.78229 C757.429185,1705.78229 760.218884,1708.58057 760.218884,1712.0246 C760.218884,1713.68204 759.553648,1715.2663 758.347639,1716.47601 C758,1716.82472 758,1717.38868 758.347639,1717.73739 C758.695279,1718.0861 759.257511,1718.0861 759.60515,1717.73739 C761.150215,1716.18758 762,1714.1599 762,1712.0246 C762,1707.59902 758.412017,1704 754,1704 C749.587983,1704 746,1707.59902 746,1712.0246 C746,1714.26322 746.858369,1716.29951 748.416309,1717.75892 C748.587983,1717.9182 748.806867,1718 749.021459,1718 C749.253219,1718 749.48927,1717.90529 749.665236,1717.71587 Z" id="podcast" fill="#2C2C2C" fill-rule="nonzero"></path>
        </g>
    </g>
</svg>