<?xml version="1.0" encoding="UTF-8"?>
<svg width="32px" height="32px" viewBox="0 0 32 32" version="1.1" xmlns="http://www.w3.org/2000/svg" xmlns:xlink="http://www.w3.org/1999/xlink">
    <title>136A7E41-84D0-4BBB-9EBC-966C24FA92AC</title>
    <g id="StyleGuide" stroke="none" stroke-width="1" fill="none" fill-rule="evenodd">
        <g id="205_Icons" transform="translate(-738.000000, -1584.000000)">
            <rect fill="#FFFFFF" fill-opacity="0" x="0" y="0" width="1440" height="2800"></rect>
            <path d="M751.545455,1603.79873 L751.545455,1596.20127 L757.818182,1600.00015 L751.545455,1603.79873 Z M765.498455,1593.81076 C765.222455,1592.70434 764.409182,1591.83308 763.376636,1591.53739 C761.505045,1591 754,1591 754,1591 C754,1591 746.494955,1591 744.623364,1591.53739 C743.590818,1591.83308 742.777545,1592.70434 742.501545,1593.81076 C742,1595.81602 742,1600 742,1600 C742,1600 742,1604.18384 742.501545,1606.18924 C742.777545,1607.29566 743.590818,1608.16692 744.623364,1608.46276 C746.494955,1609 754,1609 754,1609 C754,1609 761.505045,1609 763.376636,1608.46276 C764.409182,1608.16692 765.222455,1607.29566 765.498455,1606.18924 C766,1604.18384 766,1600 766,1600 C766,1600 766,1595.81602 765.498455,1593.81076 L765.498455,1593.81076 Z" id="Youtube" fill="#2C2C2C"></path>
        </g>
    </g>
</svg>